<svg id="Capa_1" data-name="Capa 1" xmlns="http://www.w3.org/2000/svg" viewBox="0 0 20 20"><defs><style>.cls-1{fill:#eeece8;}</style></defs><title>instagram</title><path class="cls-1" d="M10,1.89c2.63,0,2.94,0,4,.06a5.12,5.12,0,0,1,1.82.34A3.25,3.25,0,0,1,17.7,4.15,5.56,5.56,0,0,1,18,6c0,1,.06,1.35.06,4s0,2.93-.06,4a5.56,5.56,0,0,1-.33,1.82,3.25,3.25,0,0,1-1.87,1.86,5.12,5.12,0,0,1-1.82.34C13,18,12.67,18,10,18s-2.93,0-4-.06a5.12,5.12,0,0,1-1.82-.34,3.06,3.06,0,0,1-1.13-.73,3,3,0,0,1-.74-1.13,5.76,5.76,0,0,1-.34-1.82c0-1,0-1.35,0-4S2,7,2.05,6a5.76,5.76,0,0,1,.34-1.82A3,3,0,0,1,3.13,3a3.06,3.06,0,0,1,1.13-.73A5.12,5.12,0,0,1,6.08,2c1-.05,1.34-.06,4-.06M10,.12c-2.66,0-3,0-4,.06A7.38,7.38,0,0,0,3.61.64,4.84,4.84,0,0,0,1.88,1.77,4.86,4.86,0,0,0,.74,3.51,7.34,7.34,0,0,0,.29,5.89C.24,6.94.23,7.27.23,9.94s0,3,.06,4.05a7.34,7.34,0,0,0,.45,2.38,4.77,4.77,0,0,0,1.14,1.74,4.84,4.84,0,0,0,1.73,1.13A7.38,7.38,0,0,0,6,19.7c1,0,1.38.06,4,.06s3,0,4.05-.06a7.25,7.25,0,0,0,2.38-.46,5,5,0,0,0,2.87-2.87A7.05,7.05,0,0,0,19.8,14c.05-1.05.06-1.38.06-4.05s0-3-.06-4a7.05,7.05,0,0,0-.46-2.38,4.82,4.82,0,0,0-1.13-1.74A4.79,4.79,0,0,0,16.47.64,7.25,7.25,0,0,0,14.09.18C13,.14,12.71.12,10,.12ZM10,4.9a5,5,0,1,0,5,5A5,5,0,0,0,10,4.9Zm0,8.31a3.27,3.27,0,1,1,3.28-3.27A3.27,3.27,0,0,1,10,13.21ZM16.46,4.7a1.18,1.18,0,1,1-1.18-1.18A1.18,1.18,0,0,1,16.46,4.7Z"/></svg>