<svg id="Capa_1" data-name="Capa 1" xmlns="http://www.w3.org/2000/svg" viewBox="0 0 20 20"><defs><style>.cls-1{fill:#eeece8;}</style></defs><title>spotify</title><path class="cls-1" d="M10,0h0A9.94,9.94,0,1,0,20,9.94,9.94,9.94,0,0,0,10,0ZM14.6,14.34h0a.62.62,0,0,1-.85.2c-2.33-1.42-5.27-1.75-8.73-1a.62.62,0,0,1-.28-1.2c3.79-.87,7-.5,9.66,1.1A.63.63,0,0,1,14.6,14.34Zm1.22-2.71h0a.78.78,0,0,1-1.07.26,13,13,0,0,0-9.9-1.16A.78.78,0,0,1,4.4,9.24a14.53,14.53,0,0,1,11.16,1.32.78.78,0,0,1,.26,1.07Zm.1-2.82h0c-3.2-1.9-8.49-2.08-11.54-1.15a.93.93,0,1,1-.54-1.78c3.51-1.06,9.34-.86,13,1.33a.93.93,0,1,1-1,1.6Z"/></svg>