<svg id="Capa_1" data-name="Capa 1" xmlns="http://www.w3.org/2000/svg" viewBox="0 0 206 60"><defs><style>.cls-1{fill:#f6f7f5;}</style></defs><title>logo-ine</title><path class="cls-1" d="M30.48,7.6c-7.66,0-1.25,40-19.5,40-12.73,0-9.76-19.88-.75-19.88,1.53,0,1.63,1.67,1.63,1.67C3.08,29.43.06,46,10.28,46,23.05,46,20.45,15.35,26.67,8.29c-4.13,1.44-9.52,5.21-9.52,9.9,0,1,.37,1.44,1,1.44,0,0-.09.65-1,.65S15,19.49,15,17.58C15,11.73,25,6.85,29.55,6.85A.87.87,0,0,1,30.48,7.6Z"/><path class="cls-1" d="M40.35,22.23c-4.92,4.32-9.94,17.84-9.94,18.67a.62.62,0,0,1-.65.56c-1.11,0-1.48-1.16-1.48-3.67,0-8.87,2-18.16,4.83-18.16.55,0,.83.37.83,1a97.46,97.46,0,0,0-3.06,14.07h.41C33.76,28.55,38.08,19.91,43,19.91a2.06,2.06,0,0,1,2.37,2.27s-3.06,9.34-3.06,17c0,3.67.55,4.92,1.44,4.92s1.3-.88,1.76-.88.28.46.28.46-1,2-2.42,2c-2.41,0-3.76-3.86-3.76-9.1a60.16,60.16,0,0,1,2-14.08C41.75,21.81,41.1,21.62,40.35,22.23Z"/><path class="cls-1" d="M58.58,20.88c-7,0-12.58,21.23-4.74,21.23,3.3,0,5.3-3.81,5.3-3.81s.19-.37.88-.37.56.37.56.37-2.6,5.43-7.15,5.43c-12.41,0-5.72-24,5.48-24,6.78,0,3.11,13.42-5.2,13.42-1.54,0-1.86-.92-1.86-.92C58,32.22,62.62,20.88,58.58,20.88Z"/><path class="cls-1" d="M85.71,9.32c-5.3,0-7.71,9.33-.61,11.1,3-7.48,8.22-14.12,13.75-14.12,8.55,0,2.88,15.09-10.59,15.6-2.6,8.46-3,17.47.51,17.47,5.11,0,12.26-16,13.75-19.79.84-2,1.63-3.39,3-3.39a1,1,0,0,1,1,1.07s-1.68,3.95-3.26,13.24c-2.09,11.75-5,26.89-19.18,26.89-15.37,0-13-17.84-4.69-17.84a1.42,1.42,0,0,1,1.49,1.21c-6.83,0-9,15.56,3.15,15.56,11.62,0,13.94-14.72,16.12-26a17,17,0,0,1,.37-1.81h-.46C96.9,34.49,92.39,41,88.17,41c-7,0-7-10.08-3.53-19.33-9.06-2-6.27-13.33.14-13.33C85.75,8.29,85.71,9.32,85.71,9.32Zm3,11.33c11-.74,15.7-13,10.17-13C94.72,7.64,91,13.78,88.68,20.65Z"/><path class="cls-1" d="M125.3,43.73a.51.51,0,0,1,.56-.41c.56,0,.42.41.42.41s-1.26,3.63-3.11,3.63c-3.91,0-4.56-7.81-3.44-15.1h-.42c-2.83,4.93-6.27,9.8-8.64,9.8-7.9,0-.88-22.34,3.25-22.34.65,0,.84.42.84,1,0,0-4.74,11.94-4.74,17.33,0,1.35.28,2.37,1.12,2.37,2.27,0,8.77-11.94,10.82-16.45,1.16-2.64,2.37-4.27,3.81-4.27.69,0,.93.42.93,1A50.66,50.66,0,0,0,122,41.18c0,3.76.6,4.55,1.39,4.55C124.65,45.73,125.3,43.73,125.3,43.73Zm-5.62-31.81c0,1.21-2.23,4.36-2.23,4.36-1.67,0-1.11-5.43,1.3-5.43C119.4,10.85,119.68,11.22,119.68,11.92Zm6.64,0c0,1.21-2.27,4.36-2.27,4.36-1.67,0-1.07-5.43,1.3-5.43C126.05,10.85,126.32,11.22,126.32,11.92Z"/><path class="cls-1" d="M139.21,20.88c-7,0-12.59,21.23-4.74,21.23,3.3,0,5.3-3.81,5.3-3.81s.19-.37.88-.37.56.37.56.37-2.6,5.43-7.15,5.43c-12.41,0-5.72-24,5.48-24,6.78,0,3.11,13.42-5.21,13.42-1.53,0-1.85-.92-1.85-.92C138.61,32.22,143.25,20.88,139.21,20.88Z"/><path class="cls-1" d="M157.21,22.14c.14-.52-.37-.56-.88-.14-4.51,3.85-9.94,18.3-9.94,19.32a.62.62,0,0,1-.65.56c-1.12,0-1.44-1.17-1.44-3.67,0-8.87,2-18.16,4.78-18.16a.85.85,0,0,1,.88,1,92.08,92.08,0,0,0-3.06,13.84h.42c2.55-6.41,6.87-15.32,11.28-15.32a2,2,0,0,1,2.23,2.18,90.16,90.16,0,0,0-3.16,12.82h.38c2.55-5.39,6.92-13.19,10.49-13.19a2,2,0,0,1,2.23,2.13,63.3,63.3,0,0,0-2.41,15.66c0,3.67.56,4.92,1.48,4.92s1.26-.88,1.72-.88.28.46.28.46-1,2-2.37,2c-2.46,0-3.81-3.86-3.81-9.1A48.82,48.82,0,0,1,167.15,24c.09-.42-.37-.42-.79-.05-4.09,3.49-9.15,14.77-9.15,15.7a.62.62,0,0,1-.65.56c-1.11,0-1.44-1.16-1.44-3.67A62.1,62.1,0,0,1,157.21,22.14Z"/><path class="cls-1" d="M184.68,20.88c-7,0-12.59,21.23-4.74,21.23,3.3,0,5.3-3.81,5.3-3.81s.19-.37.88-.37.56.37.56.37-2.6,5.43-7.15,5.43c-12.41,0-5.72-24,5.48-24,6.78,0,3.11,13.42-5.2,13.42-1.54,0-1.86-.92-1.86-.92C184.08,32.22,188.72,20.88,184.68,20.88Z"/><path class="cls-1" d="M199.94,32.63c0-4.5-1.72-9-1.72-12.77a6.13,6.13,0,0,1,.09-1.3c-2.27,3.72-4.78,9.71-8.59,15.19-.32.42-1.44-.28-1.21-.61,6.13-9,9.53-19.74,13.8-19.74.74,0,1,.42,1,.84,0,1.58-3.29,2.88-3.29,7.29,0,3.67,2.69,9.76,2.69,14.12,0,5.58-3.67,9.8-7.43,9.8-7.94,0-2.79-14,2.41-17.28.51-.32.75.89.38,1.12-4.32,2.46-7.9,14.63-3.44,14.63C197,43.92,199.94,39.55,199.94,32.63Z"/></svg>